<svg xmlns="http://www.w3.org/2000/svg" viewBox="0 0 485.45 203.88"><defs><style>.cls-1{fill:#4385f5;}.cls-2{fill:#656c74;}.cls-3{fill:#ea4235;}.cls-4{fill:#fcbc03;}.cls-5{fill:#109d59;}</style></defs><g id="Layer_2" data-name="Layer 2"><g id="Layer_1-2" data-name="Layer 1"><path class="cls-1" d="M27,198a10.51,10.51,0,0,1-7.72-3.21A11.27,11.27,0,0,1,17,191.32a11.82,11.82,0,0,1,0-8.55,10.93,10.93,0,0,1,2.26-3.49,10.4,10.4,0,0,1,3.42-2.37,10.72,10.72,0,0,1,4.3-.86,10.54,10.54,0,0,1,4.27.86,10.2,10.2,0,0,1,3.42,2.37A10.45,10.45,0,0,1,37,182.77a11.55,11.55,0,0,1,0,8.55,10.76,10.76,0,0,1-2.26,3.49A10.51,10.51,0,0,1,27,198Zm0-2.38a8,8,0,0,0,7.11-4.12,9.54,9.54,0,0,0,0-9A8,8,0,0,0,27,178.44a8.1,8.1,0,0,0-7.14,4.11,9.54,9.54,0,0,0,0,9A8,8,0,0,0,27,195.64Zm13.78,1.91v-15h2.38v2.21h.12a5,5,0,0,1,1.92-1.88,5.65,5.65,0,0,1,2.92-.8,5.22,5.22,0,0,1,4.16,1.61,6.23,6.23,0,0,1,1.4,4.24v9.6h-2.5v-9.22a3.82,3.82,0,0,0-1-3.06,3.94,3.94,0,0,0-2.68-.91,3.61,3.61,0,0,0-2.18.69,4.72,4.72,0,0,0-1.46,1.78,5.21,5.21,0,0,0-.53,2.3v8.42Zm33.05.47a11,11,0,0,1-4.31-.84,10.61,10.61,0,0,1-3.46-2.31,10.86,10.86,0,0,1-2.3-3.5,12,12,0,0,1,0-8.67,10.88,10.88,0,0,1,2.3-3.48,10.61,10.61,0,0,1,3.46-2.31,10.8,10.8,0,0,1,4.31-.86,10.36,10.36,0,0,1,3,.42,9.86,9.86,0,0,1,2.57,1.18,9.74,9.74,0,0,1,2.12,1.84l-1.79,1.74a8.3,8.3,0,0,0-1.68-1.59,6.62,6.62,0,0,0-1.94-.91,8.68,8.68,0,0,0-2.28-.29,8.55,8.55,0,0,0-4.17,1.05,8.2,8.2,0,0,0-3.06,3,9.67,9.67,0,0,0,0,9.11,8.3,8.3,0,0,0,3.06,3,8.55,8.55,0,0,0,4.17,1,7.94,7.94,0,0,0,2.55-.38,8.44,8.44,0,0,0,2.14-1.08,10.24,10.24,0,0,0,1.81-1.69l1.81,1.76A10.56,10.56,0,0,1,80,196.19a11.38,11.38,0,0,1-2.81,1.34A11.08,11.08,0,0,1,73.83,198Zm15.58,0a6.48,6.48,0,0,1-2.93-.64,5.07,5.07,0,0,1-2-1.77,4.76,4.76,0,0,1-.72-2.59,4.4,4.4,0,0,1,.85-2.75,5.09,5.09,0,0,1,2.28-1.7A8.46,8.46,0,0,1,90.1,188a9.63,9.63,0,0,1,1.84.16,7.81,7.81,0,0,1,1.47.38,4.5,4.5,0,0,1,1,.42V188a3.32,3.32,0,0,0-1.21-2.7,4.43,4.43,0,0,0-2.92-1,5.09,5.09,0,0,0-2.31.54,4.18,4.18,0,0,0-1.69,1.5L84.38,185a6,6,0,0,1,1.45-1.52,6.76,6.76,0,0,1,2-1,7.92,7.92,0,0,1,2.4-.36A6.69,6.69,0,0,1,95,183.73a5.63,5.63,0,0,1,1.74,4.33v9.49H94.37v-2.14h-.11a5.27,5.27,0,0,1-1.08,1.25,6.08,6.08,0,0,1-1.67,1A5.65,5.65,0,0,1,89.41,198Zm.24-2.21a4.51,4.51,0,0,0,2.37-.64,4.86,4.86,0,0,0,1.7-1.73,4.6,4.6,0,0,0,.65-2.38,6,6,0,0,0-1.68-.76,7.82,7.82,0,0,0-2.21-.3,4.65,4.65,0,0,0-3.15.88,2.79,2.79,0,0,0-1,2.18,2.46,2.46,0,0,0,.94,2A3.71,3.71,0,0,0,89.65,195.81Zm10.56,1.74v-15h2.38v2.21h.12a4.89,4.89,0,0,1,1.13-1.34,6,6,0,0,1,1.64-1,5,5,0,0,1,1.9-.38,4.89,4.89,0,0,1,2.86.82A4.54,4.54,0,0,1,112,185a6.3,6.3,0,0,1,2-2.09,5.66,5.66,0,0,1,3.09-.83,4.65,4.65,0,0,1,3.93,1.63,6.61,6.61,0,0,1,1.27,4.22v9.6h-2.46v-9.22a4.25,4.25,0,0,0-.89-3.06,3.68,3.68,0,0,0-4.54-.24,4.71,4.71,0,0,0-1.42,1.72,5.55,5.55,0,0,0-.5,2.34v8.46H110v-9.18a4.33,4.33,0,0,0-.89-3.08,3.23,3.23,0,0,0-2.46-.93,3.31,3.31,0,0,0-2.05.69,4.74,4.74,0,0,0-1.41,1.76,5.4,5.4,0,0,0-.51,2.33v8.41Zm25.68,6.33V182.57h2.38v2.23h.12a5.35,5.35,0,0,1,1.16-1.3,6,6,0,0,1,1.74-1,6.33,6.33,0,0,1,2.21-.38,6.73,6.73,0,0,1,3.66,1,7.21,7.21,0,0,1,2.55,2.83,9.46,9.46,0,0,1,0,8.22,7.19,7.19,0,0,1-2.55,2.8,6.66,6.66,0,0,1-3.66,1,6,6,0,0,1-3.15-.82,5.69,5.69,0,0,1-2-1.86h-.12l.12,2.06v6.48Zm7.34-8.13a4.53,4.53,0,0,0,2.42-.69,4.92,4.92,0,0,0,1.83-2,6.38,6.38,0,0,0,.69-3,6.26,6.26,0,0,0-.69-3,5,5,0,0,0-1.83-2,4.53,4.53,0,0,0-2.42-.69,4.62,4.62,0,0,0-2.43.69,5.16,5.16,0,0,0-1.83,2,6.15,6.15,0,0,0-.7,3,6.23,6.23,0,0,0,.7,3,5.15,5.15,0,0,0,1.83,1.95A4.62,4.62,0,0,0,133.23,195.75ZM148.85,198a5.17,5.17,0,0,1-4.15-1.62,6.48,6.48,0,0,1-1.39-4.39v-9.44h2.48v9.06a4.18,4.18,0,0,0,1,3.18,3.64,3.64,0,0,0,2.55.94,3.8,3.8,0,0,0,2.28-.69,4.55,4.55,0,0,0,1.51-1.77,5.12,5.12,0,0,0,.52-2.26v-8.46h2.5v15h-2.37v-2.18h-.13a4.38,4.38,0,0,1-1.12,1.31,6.69,6.69,0,0,1-1.7,1A5.48,5.48,0,0,1,148.85,198ZM165,198a7.37,7.37,0,0,1-3-.55,5.86,5.86,0,0,1-2.1-1.46,6.3,6.3,0,0,1-1.25-2l2.22-1a4.82,4.82,0,0,0,1.7,2.08,4.56,4.56,0,0,0,2.56.73,4.39,4.39,0,0,0,2.31-.55,1.8,1.8,0,0,0,.93-1.64,1.73,1.73,0,0,0-.38-1.13,2.82,2.82,0,0,0-1.12-.77,10.79,10.79,0,0,0-1.8-.6l-1.81-.47a9.32,9.32,0,0,1-2-.82,4.82,4.82,0,0,1-1.5-1.37,3.45,3.45,0,0,1-.58-2,3.52,3.52,0,0,1,.8-2.32,4.89,4.89,0,0,1,2.08-1.48,7.34,7.34,0,0,1,2.77-.53,7.56,7.56,0,0,1,2.41.38,5.74,5.74,0,0,1,2,1.09,4.3,4.3,0,0,1,1.28,1.77l-2.17,1a3.17,3.17,0,0,0-1.5-1.56,4.84,4.84,0,0,0-2.08-.43,4.1,4.1,0,0,0-2.14.54,1.65,1.65,0,0,0-.9,1.47,1.56,1.56,0,0,0,.74,1.41,6.46,6.46,0,0,0,1.83.76l2.17.56a7,7,0,0,1,3.31,1.67,3.6,3.6,0,0,1,1.12,2.68,3.88,3.88,0,0,1-.79,2.44,5,5,0,0,1-2.14,1.57A7.62,7.62,0,0,1,165,198Z"/><path class="cls-2" d="M184.19,191.35a3.17,3.17,0,0,1-1.67-.45,3.72,3.72,0,0,1-1.21-1.19,3.24,3.24,0,0,1-.45-1.67,3.15,3.15,0,0,1,.45-1.65,3.68,3.68,0,0,1,1.21-1.21,3.17,3.17,0,0,1,1.67-.45,3,3,0,0,1,1.63.45,3.53,3.53,0,0,1,1.19,1.21,3.16,3.16,0,0,1,.46,1.65,3.25,3.25,0,0,1-.46,1.67,3.56,3.56,0,0,1-1.19,1.19A3,3,0,0,1,184.19,191.35Zm14.73,6.2v-21h12.15v2.39H201.4v16.25h9.67v2.38Zm1.32-9.33v-2.35h9.89v2.35Zm14.85,9.33v-21h3l10.54,16.72h.13l-.13-4V176.53h2.5v21h-2.59l-11-17.53h-.11l.11,4.06v13.47Zm26.65.47a7.78,7.78,0,0,1-3-.64,7.48,7.48,0,0,1-2.64-1.92,7.67,7.67,0,0,1-1.67-3.15l2.37-1a6.38,6.38,0,0,0,1.82,3.06,4.51,4.51,0,0,0,3.2,1.23,5.39,5.39,0,0,0,2.15-.41,3.85,3.85,0,0,0,1.6-1.25,3.36,3.36,0,0,0,.59-2,3,3,0,0,0-.52-1.78,4.55,4.55,0,0,0-1.54-1.32,15.73,15.73,0,0,0-2.52-1.1l-1.32-.47a19.15,19.15,0,0,1-1.77-.78,8.62,8.62,0,0,1-1.65-1.1,5.27,5.27,0,0,1-1.19-1.6,5.06,5.06,0,0,1-.44-2.19,4.92,4.92,0,0,1,.82-2.77,6.09,6.09,0,0,1,2.26-2,7.66,7.66,0,0,1,6.63-.05,6.77,6.77,0,0,1,2.11,1.7,5.72,5.72,0,0,1,1,1.81l-2.32,1a3.56,3.56,0,0,0-.67-1.27,4.11,4.11,0,0,0-1.34-1.12,4.41,4.41,0,0,0-2.1-.46,4.48,4.48,0,0,0-1.92.42,3.64,3.64,0,0,0-1.43,1.12,2.72,2.72,0,0,0-.54,1.65,2.48,2.48,0,0,0,1.05,2.1,11.22,11.22,0,0,0,2.84,1.38l1.39.47a14.12,14.12,0,0,1,1.9.78,7.66,7.66,0,0,1,1.85,1.21,5.45,5.45,0,0,1,1.38,1.81,6.5,6.5,0,0,1-.11,5.34,5.42,5.42,0,0,1-1.65,1.9,7.28,7.28,0,0,1-2.24,1A8.75,8.75,0,0,1,241.74,198Zm10.62-.47v-21h12.15v2.39h-9.67v16.25h9.67v2.38Zm1.32-9.33v-2.35h9.89v2.35Zm19.16,9.33V178h2.5v19.52Zm-5.9-18.63v-2.39h14.27v2.39Zm24.19,18.63v-21h3.6l6.7,17.23h.11l6.7-17.23h3.6v21h-2.46V184.18l.11-4h-.11l-6.86,17.35h-2.06l-6.87-17.35h-.12l.12,4v13.37Zm31.51.47a7.61,7.61,0,0,1-4-1.05,7.83,7.83,0,0,1-2.71-2.86,8.41,8.41,0,0,1-1-4,8.33,8.33,0,0,1,1-4,7.43,7.43,0,0,1,6.71-3.93,7.28,7.28,0,0,1,4,1.09,7.43,7.43,0,0,1,2.71,2.88,8,8,0,0,1,1,4,8.2,8.2,0,0,1-1,4,7.36,7.36,0,0,1-6.7,3.91Zm0-2.27a5,5,0,0,0,2.54-.67,5,5,0,0,0,1.92-1.93,6.13,6.13,0,0,0,.74-3.08,6,6,0,0,0-.74-3.06,5.13,5.13,0,0,0-4.46-2.65,5,5,0,0,0-2.55.69,5.22,5.22,0,0,0-1.94,2,6.08,6.08,0,0,0-.72,3.06,6.23,6.23,0,0,0,.72,3.08,5.2,5.2,0,0,0,1.94,1.93A5.12,5.12,0,0,0,322.64,195.75Zm10.45,1.8v-21h2.5v6.19l-.13,2.06h.13a4.8,4.8,0,0,1,1.92-1.9,6.31,6.31,0,0,1,6.08,0,4.76,4.76,0,0,1,1.87,2.06,7,7,0,0,1,.61,3v9.6h-2.5v-9.22a4.43,4.43,0,0,0-.52-2.3,3.14,3.14,0,0,0-1.34-1.27,4.3,4.3,0,0,0-1.83-.4,3.65,3.65,0,0,0-2.21.71,5,5,0,0,0-1.52,1.83,5.12,5.12,0,0,0-.56,2.32v8.33Zm21.19.47a6.56,6.56,0,0,1-2.94-.64,5,5,0,0,1-2-1.77,4.76,4.76,0,0,1-.72-2.59,4.4,4.4,0,0,1,.85-2.75,5,5,0,0,1,2.28-1.7A8.41,8.41,0,0,1,355,188a9.73,9.73,0,0,1,1.85.16,7.81,7.81,0,0,1,1.47.38,4.5,4.5,0,0,1,1,.42V188a3.33,3.33,0,0,0-1.22-2.7,4.39,4.39,0,0,0-2.91-1,5.17,5.17,0,0,0-2.32.54,4.21,4.21,0,0,0-1.68,1.5L349.24,185a6.15,6.15,0,0,1,1.45-1.52,6.76,6.76,0,0,1,2-1,7.94,7.94,0,0,1,2.41-.36,6.69,6.69,0,0,1,4.78,1.63,5.63,5.63,0,0,1,1.74,4.33v9.49h-2.39v-2.14h-.11a5.33,5.33,0,0,1-1.09,1.25,6,6,0,0,1-1.66,1A5.65,5.65,0,0,1,354.28,198Zm.23-2.21a4.48,4.48,0,0,0,2.37-.64,4.89,4.89,0,0,0,1.71-1.73,4.6,4.6,0,0,0,.65-2.38,5.89,5.89,0,0,0-1.69-.76,7.7,7.7,0,0,0-2.2-.3,4.7,4.7,0,0,0-3.16.88,2.82,2.82,0,0,0-1,2.18,2.43,2.43,0,0,0,.94,2A3.7,3.7,0,0,0,354.51,195.81Zm10.57,1.74v-15h2.37v2.21h.13a5,5,0,0,1,1.12-1.34,5.86,5.86,0,0,1,1.65-1,5,5,0,0,1,1.9-.38,4.91,4.91,0,0,1,2.86.82,4.54,4.54,0,0,1,1.74,2.1,6.3,6.3,0,0,1,2-2.09,5.64,5.64,0,0,1,3.09-.83,4.66,4.66,0,0,1,3.93,1.63,6.67,6.67,0,0,1,1.27,4.22v9.6h-2.47v-9.22a4.26,4.26,0,0,0-.88-3.06,3.36,3.36,0,0,0-2.5-.91,3.42,3.42,0,0,0-2,.67,4.69,4.69,0,0,0-1.41,1.72,5.41,5.41,0,0,0-.51,2.34v8.46h-2.48v-9.18a4.33,4.33,0,0,0-.88-3.08,3.56,3.56,0,0,0-4.51-.24,4.74,4.74,0,0,0-1.41,1.76,5.4,5.4,0,0,0-.51,2.33v8.41Zm25.68,0v-15h2.37v2.21h.13a5,5,0,0,1,1.12-1.34,5.86,5.86,0,0,1,1.65-1,5,5,0,0,1,1.9-.38,4.91,4.91,0,0,1,2.86.82,4.54,4.54,0,0,1,1.74,2.1,6.36,6.36,0,0,1,2-2.09,5.7,5.7,0,0,1,3.1-.83,4.67,4.67,0,0,1,3.93,1.63,6.67,6.67,0,0,1,1.27,4.22v9.6H410.4v-9.22a4.26,4.26,0,0,0-.88-3.06,3.36,3.36,0,0,0-2.5-.91,3.42,3.42,0,0,0-2,.67,4.69,4.69,0,0,0-1.41,1.72,5.41,5.41,0,0,0-.51,2.34v8.46h-2.48v-9.18a4.33,4.33,0,0,0-.88-3.08,3.56,3.56,0,0,0-4.51-.24,4.74,4.74,0,0,0-1.41,1.76,5.4,5.4,0,0,0-.51,2.33v8.41Zm32.34.47a7.23,7.23,0,0,1-6.5-3.84,8.55,8.55,0,0,1-1-4.09,8.87,8.87,0,0,1,.89-4,7.38,7.38,0,0,1,2.54-2.93,6.62,6.62,0,0,1,3.83-1.11,7,7,0,0,1,3.82,1,6.36,6.36,0,0,1,2.47,2.71,8.66,8.66,0,0,1,.87,3.95c0,.15,0,.28,0,.42a1.37,1.37,0,0,1,0,.36H417.11v-2.07h10.3a4.2,4.2,0,0,0-.27-1.32,4.28,4.28,0,0,0-2.17-2.39,4.9,4.9,0,0,0-2.07-.4,4.34,4.34,0,0,0-2.55.77,4.86,4.86,0,0,0-1.65,2,7.38,7.38,0,0,0-.56,2.94,6.24,6.24,0,0,0,.73,3.18,4.74,4.74,0,0,0,1.9,1.87,5.08,5.08,0,0,0,2.42.61,4.49,4.49,0,0,0,2.72-.78,6.05,6.05,0,0,0,1.72-1.91l2.1,1a7.56,7.56,0,0,1-2.52,2.82A7.2,7.2,0,0,1,423.1,198Zm16.38,0a6.65,6.65,0,0,1-3.65-1,7.26,7.26,0,0,1-2.58-2.8,9.46,9.46,0,0,1,0-8.22,7.28,7.28,0,0,1,2.58-2.83,6.72,6.72,0,0,1,3.65-1,6.14,6.14,0,0,1,2.19.38,5.85,5.85,0,0,1,1.76,1,5.35,5.35,0,0,1,1.16,1.3h.11l-.11-2.08v-6.19h2.5v21H444.7v-2.21h-.11a5.35,5.35,0,0,1-1.16,1.3,6.26,6.26,0,0,1-1.76,1A6.14,6.14,0,0,1,439.48,198Zm.26-2.27a4.53,4.53,0,0,0,2.42-.69,5,5,0,0,0,1.83-1.95,6.24,6.24,0,0,0,.71-3,6.16,6.16,0,0,0-.71-3,5,5,0,0,0-1.83-2,4.53,4.53,0,0,0-2.42-.69,4.62,4.62,0,0,0-2.43.69,5.16,5.16,0,0,0-1.83,2,6.26,6.26,0,0,0-.69,3,6.38,6.38,0,0,0,.69,3,5.06,5.06,0,0,0,1.83,2A4.62,4.62,0,0,0,439.74,195.75Zm11.27,1.8v-15h2.5v15Zm1.23-17.73a1.79,1.79,0,0,1-1.79-1.79,1.7,1.7,0,0,1,.53-1.27,1.75,1.75,0,0,1,1.26-.52A1.79,1.79,0,0,1,454,178a1.75,1.75,0,0,1-.53,1.27A1.69,1.69,0,0,1,452.24,179.82ZM462,198a6.51,6.51,0,0,1-2.93-.64,5,5,0,0,1-2-1.77,4.69,4.69,0,0,1-.73-2.59,4.46,4.46,0,0,1,.85-2.75,5.09,5.09,0,0,1,2.28-1.7,8.46,8.46,0,0,1,3.19-.58,9.73,9.73,0,0,1,1.85.16,7.69,7.69,0,0,1,1.46.38,4.08,4.08,0,0,1,1,.42V188a3.32,3.32,0,0,0-1.21-2.7,4.42,4.42,0,0,0-2.91-1,5.14,5.14,0,0,0-2.32.54,4.31,4.31,0,0,0-1.69,1.5L457,185a6.15,6.15,0,0,1,1.45-1.52,6.76,6.76,0,0,1,2-1,7.94,7.94,0,0,1,2.41-.36,6.71,6.71,0,0,1,4.78,1.63,5.66,5.66,0,0,1,1.73,4.33v9.49H467v-2.14h-.1a5.57,5.57,0,0,1-1.09,1.25,6.08,6.08,0,0,1-1.67,1A5.57,5.57,0,0,1,462,198Zm.24-2.21a4.48,4.48,0,0,0,2.37-.64,4.86,4.86,0,0,0,1.7-1.73,4.51,4.51,0,0,0,.65-2.38,5.7,5.7,0,0,0-1.68-.76,7.77,7.77,0,0,0-2.21-.3,4.68,4.68,0,0,0-3.15.88,2.82,2.82,0,0,0-1,2.18,2.43,2.43,0,0,0,.94,2A3.68,3.68,0,0,0,462.28,195.81Z"/><path class="cls-2" d="M31.2,139.47q0,6.47-3.84,10.3A14.87,14.87,0,0,1,16,154.34a16.12,16.12,0,1,1,0-32.24,17.21,17.21,0,0,1,6.42,1.21,12.91,12.91,0,0,1,5,3.4l-2.85,2.85a9.59,9.59,0,0,0-3.68-2.7,12.31,12.31,0,0,0-4.85-1,11.6,11.6,0,0,0-8.53,3.49,13,13,0,0,0,0,17.66,11.6,11.6,0,0,0,8.53,3.5A11.5,11.5,0,0,0,23.7,148a10.31,10.31,0,0,0,3.54-7.11H16v-3.71H31A12.73,12.73,0,0,1,31.2,139.47Z"/><path class="cls-2" d="M33.91,143.09A11.17,11.17,0,0,1,37,135a10.46,10.46,0,0,1,7.8-3.19A10.31,10.31,0,0,1,52.53,135a12,12,0,0,1,0,16.12,10.31,10.31,0,0,1-7.76,3.19,10.46,10.46,0,0,1-7.8-3.19A11.17,11.17,0,0,1,33.91,143.09Zm4,0a7.75,7.75,0,0,0,2,5.52,6.78,6.78,0,0,0,9.83,0,8.61,8.61,0,0,0,0-11,6.67,6.67,0,0,0-9.83,0A7.68,7.68,0,0,0,37.88,143.09Z"/><path class="cls-2" d="M58.05,143.09A11.17,11.17,0,0,1,61.11,135a10.43,10.43,0,0,1,7.8-3.19A10.3,10.3,0,0,1,76.66,135a12,12,0,0,1,0,16.12,10.3,10.3,0,0,1-7.75,3.19,10.43,10.43,0,0,1-7.8-3.19A11.17,11.17,0,0,1,58.05,143.09Zm4,0a7.75,7.75,0,0,0,2,5.52,6.78,6.78,0,0,0,9.83,0,8.61,8.61,0,0,0,0-11,6.67,6.67,0,0,0-9.83,0A7.68,7.68,0,0,0,62,143.09Z"/><path class="cls-2" d="M92.74,163.65a11.48,11.48,0,0,1-3.32-.46,10.48,10.48,0,0,1-2.82-1.27A8.85,8.85,0,0,1,84.42,160a8.25,8.25,0,0,1-1.38-2.5l3.75-1.55a6,6,0,0,0,2.24,3A6.33,6.33,0,0,0,92.74,160a6.58,6.58,0,0,0,5-1.94,7.54,7.54,0,0,0,1.81-5.35v-2h-.17a7.85,7.85,0,0,1-3,2.65,9.19,9.19,0,0,1-4.16,1,9.34,9.34,0,0,1-7.11-3.23,11.73,11.73,0,0,1-2.93-8,11.54,11.54,0,0,1,2.93-8,9.37,9.37,0,0,1,11.27-2.31,7.85,7.85,0,0,1,3,2.65h.17v-2.93h3.79v20.21a10.78,10.78,0,0,1-2.89,8A10.49,10.49,0,0,1,92.74,163.65Zm.13-12.93a6.1,6.1,0,0,0,4.78-2.11,8.75,8.75,0,0,0,0-11,6.09,6.09,0,0,0-4.78-2.16,6.19,6.19,0,0,0-4.79,2.16,7.87,7.87,0,0,0-1.94,5.47,7.77,7.77,0,0,0,1.94,5.47A6.19,6.19,0,0,0,92.87,150.72Z"/><path class="cls-2" d="M112.17,122.79v30.86h-4V122.79Z"/><path class="cls-2" d="M126.26,154.34a10.12,10.12,0,0,1-7.67-3.19,11.26,11.26,0,0,1-3-8.06,11.44,11.44,0,0,1,2.93-8,10.53,10.53,0,0,1,15-.17c1.86,2,2.78,4.86,2.78,8.51l0,.43H119.63a6.81,6.81,0,0,0,2.07,5,6.59,6.59,0,0,0,4.74,1.9c2.52,0,4.51-1.27,5.94-3.79l3.54,1.72a10.6,10.6,0,0,1-3.95,4.18A11,11,0,0,1,126.26,154.34Zm-6.33-13.79H132a5.25,5.25,0,0,0-1.79-3.64,6.23,6.23,0,0,0-4.33-1.45,5.75,5.75,0,0,0-3.86,1.38A6.56,6.56,0,0,0,119.93,140.55Z"/><path class="cls-2" d="M150.05,153.65V122.79h9.44q7.06,0,11.35,4.27a16.69,16.69,0,0,1,0,22.34q-4.29,4.24-11.35,4.25Zm4-27.06v23.27h5.47q5.38,0,8.49-3.09t3.1-8.55q0-5.43-3.1-8.53t-8.49-3.1Z"/><path class="cls-2" d="M188,154.34a10.12,10.12,0,0,1-7.67-3.19,11.26,11.26,0,0,1-3-8.06,11.44,11.44,0,0,1,2.93-8,10.53,10.53,0,0,1,15-.17c1.85,2,2.78,4.86,2.78,8.51l0,.43H181.34a6.81,6.81,0,0,0,2.07,5,6.59,6.59,0,0,0,4.74,1.9c2.52,0,4.5-1.27,5.94-3.79l3.54,1.72a10.6,10.6,0,0,1-3.95,4.18A11,11,0,0,1,188,154.34Zm-6.33-13.79h12.11a5.25,5.25,0,0,0-1.79-3.64,6.23,6.23,0,0,0-4.33-1.45,5.75,5.75,0,0,0-3.86,1.38A6.56,6.56,0,0,0,181.64,140.55Z"/><path class="cls-2" d="M211.42,153.65h-4l-8.53-21.12h4.31l6.2,16.38h.09l6.29-16.38H220Z"/><path class="cls-2" d="M231.45,154.34a10.12,10.12,0,0,1-7.67-3.19,11.26,11.26,0,0,1-3-8.06,11.44,11.44,0,0,1,2.93-8,10.53,10.53,0,0,1,15-.17c1.85,2,2.78,4.86,2.78,8.51l0,.43H224.82a6.81,6.81,0,0,0,2.07,5,6.59,6.59,0,0,0,4.74,1.9c2.52,0,4.51-1.27,5.94-3.79l3.54,1.72a10.6,10.6,0,0,1-4,4.18A11,11,0,0,1,231.45,154.34Zm-6.33-13.79h12.11a5.25,5.25,0,0,0-1.79-3.64,6.23,6.23,0,0,0-4.33-1.45,5.76,5.76,0,0,0-3.86,1.38A6.56,6.56,0,0,0,225.12,140.55Z"/><path class="cls-2" d="M249,122.79v30.86h-4V122.79Z"/><path class="cls-2" d="M252.44,143.09A11.17,11.17,0,0,1,255.5,135a10.46,10.46,0,0,1,7.8-3.19,10.32,10.32,0,0,1,7.76,3.19,12,12,0,0,1,0,16.12,10.32,10.32,0,0,1-7.76,3.19,10.46,10.46,0,0,1-7.8-3.19A11.17,11.17,0,0,1,252.44,143.09Zm4,0a7.76,7.76,0,0,0,2,5.52,6.77,6.77,0,0,0,9.82,0,8.61,8.61,0,0,0,0-11,6.66,6.66,0,0,0-9.82,0A7.68,7.68,0,0,0,256.4,143.09Z"/><path class="cls-2" d="M288.55,154.34a9.1,9.1,0,0,1-4.24-1,7.42,7.42,0,0,1-2.95-2.63h-.18l.18,2.93V163h-4V132.53h3.79v2.93h.18a7.42,7.42,0,0,1,2.95-2.63,9.37,9.37,0,0,1,11.31,2.29,12.18,12.18,0,0,1,0,15.94A9.06,9.06,0,0,1,288.55,154.34Zm-.64-3.62a6.17,6.17,0,0,0,4.78-2.16,7.77,7.77,0,0,0,1.94-5.47,7.87,7.87,0,0,0-1.94-5.47,6.42,6.42,0,0,0-9.61,0,8,8,0,0,0-1.9,5.47,8.08,8.08,0,0,0,1.9,5.52A6.31,6.31,0,0,0,287.91,150.72Z"/><path class="cls-2" d="M311.69,154.34a10.12,10.12,0,0,1-7.67-3.19,11.26,11.26,0,0,1-3-8.06,11.44,11.44,0,0,1,2.93-8,10.53,10.53,0,0,1,15-.17c1.85,2,2.78,4.86,2.78,8.51l0,.43H305.06a6.81,6.81,0,0,0,2.07,5,6.59,6.59,0,0,0,4.74,1.9c2.52,0,4.51-1.27,5.94-3.79l3.54,1.72a10.6,10.6,0,0,1-4,4.18A11,11,0,0,1,311.69,154.34Zm-6.33-13.79h12.11a5.25,5.25,0,0,0-1.79-3.64,6.23,6.23,0,0,0-4.33-1.45,5.76,5.76,0,0,0-3.86,1.38A6.56,6.56,0,0,0,305.36,140.55Z"/><path class="cls-2" d="M329.28,153.65h-4V132.53h3.79V136h.18a5.7,5.7,0,0,1,2.47-2.87,6.88,6.88,0,0,1,3.69-1.18,7.35,7.35,0,0,1,2.93.52l-1.21,3.83a6.6,6.6,0,0,0-2.33-.3,5.1,5.1,0,0,0-3.89,1.81,6,6,0,0,0-1.66,4.22Z"/><path class="cls-2" d="M380,139.47q0,6.47-3.83,10.3a14.89,14.89,0,0,1-11.34,4.57,16.12,16.12,0,1,1,0-32.24,17.3,17.3,0,0,1,6.43,1.21,12.8,12.8,0,0,1,5,3.4l-2.84,2.85a9.62,9.62,0,0,0-3.69-2.7,12.27,12.27,0,0,0-4.85-1,11.6,11.6,0,0,0-8.53,3.49,13,13,0,0,0,0,17.66,12.39,12.39,0,0,0,16.21.91,10.34,10.34,0,0,0,3.53-7.11H364.78v-3.71h15A13.63,13.63,0,0,1,380,139.47Z"/><path class="cls-2" d="M387.19,153.65h-4V132.53H387V136h.17a5.73,5.73,0,0,1,2.48-2.87,6.87,6.87,0,0,1,3.68-1.18,7.4,7.4,0,0,1,2.94.52l-1.21,3.83a6.64,6.64,0,0,0-2.33-.3,5.13,5.13,0,0,0-3.9,1.81,6.08,6.08,0,0,0-1.66,4.22Z"/><path class="cls-2" d="M396.37,143.09a11.17,11.17,0,0,1,3.06-8.06,10.46,10.46,0,0,1,7.8-3.19A10.32,10.32,0,0,1,415,135a12,12,0,0,1,0,16.12,10.32,10.32,0,0,1-7.76,3.19,10.46,10.46,0,0,1-7.8-3.19A11.17,11.17,0,0,1,396.37,143.09Zm4,0a7.75,7.75,0,0,0,2,5.52,6.77,6.77,0,0,0,9.82,0,8.58,8.58,0,0,0,0-11,6.66,6.66,0,0,0-9.82,0A7.68,7.68,0,0,0,400.34,143.09Z"/><path class="cls-2" d="M440,153.65h-3.8v-2.93h-.17a7,7,0,0,1-2.78,2.58,8,8,0,0,1-3.9,1,7.82,7.82,0,0,1-6-2.22,8.89,8.89,0,0,1-2.09-6.32V132.53h4v13c.08,3.44,1.82,5.17,5.21,5.17a5,5,0,0,0,4-1.92,7,7,0,0,0,1.59-4.59V132.53h4Z"/><path class="cls-2" d="M455.84,154.34a9.07,9.07,0,0,1-4.24-1,7.45,7.45,0,0,1-3-2.63h-.17l.17,2.93V163h-4V132.53h3.79v2.93h.17a7.45,7.45,0,0,1,3-2.63,9.37,9.37,0,0,1,11.31,2.29,12.18,12.18,0,0,1,0,15.94A9.06,9.06,0,0,1,455.84,154.34Zm-.65-3.62a6.19,6.19,0,0,0,4.79-2.16,7.77,7.77,0,0,0,1.94-5.47,7.87,7.87,0,0,0-1.94-5.47,6.42,6.42,0,0,0-9.61,0,7.94,7.94,0,0,0-1.9,5.47,8,8,0,0,0,1.9,5.52A6.3,6.3,0,0,0,455.19,150.72Z"/><path class="cls-2" d="M485.45,147.79a5.71,5.71,0,0,1-2.42,4.65,9.49,9.49,0,0,1-6.07,1.9,9.66,9.66,0,0,1-5.6-1.66,9.18,9.18,0,0,1-3.45-4.38l3.53-1.5a6.63,6.63,0,0,0,2.26,2.95A5.53,5.53,0,0,0,477,150.8a5.81,5.81,0,0,0,3.17-.81,2.35,2.35,0,0,0,1.27-1.94c0-1.35-1-2.35-3.11-3l-3.62-.9q-6.17-1.56-6.16-5.95a5.48,5.48,0,0,1,2.35-4.63,10.73,10.73,0,0,1,11.07-.41,7.22,7.22,0,0,1,3.17,3.58l-3.53,1.46a4.45,4.45,0,0,0-2-2.09,6.2,6.2,0,0,0-3-.75,5.08,5.08,0,0,0-2.78.77,2.24,2.24,0,0,0-1.23,1.9c0,1.2,1.14,2.07,3.41,2.58l3.18.82Q485.45,143,485.45,147.79Z"/><path class="cls-3" d="M198,40.86,225.39,25A13.41,13.41,0,1,0,211.92,1.83L164.69,29.05Z"/><path class="cls-1" d="M218.58,81.42a13.41,13.41,0,0,0,6.81-25L178.16,29.19a13.41,13.41,0,0,0-13.47,23.2l47.23,27.22A13,13,0,0,0,218.58,81.42Z"/><path class="cls-4" d="M265.53,81.42a13,13,0,0,0,6.67-1.81l47.23-27.22L286.51,40.3l-27.78,16a13.51,13.51,0,0,0,6.8,25.14Z"/><path class="cls-5" d="M312.76,54.19a13.4,13.4,0,0,0,6.81-25L272.34,2a13.41,13.41,0,1,0-13.47,23.19l47.22,27.23A13,13,0,0,0,312.76,54.19Z"/></g></g></svg>