<svg width="406" height="134" viewBox="0 0 406 134" fill="none" xmlns="http://www.w3.org/2000/svg">
<g clip-path="url(#clip0_85_5)">
<path d="M41.2035 131.382C37.355 131.41 33.5166 130.986 29.7682 130.119C26.2559 129.279 22.5954 127.505 18.7866 124.795C14.8296 121.93 11.5212 118.272 9.07567 114.057C3.02522 103.95 0 88.7305 0 68.3974C0 57.2082 1.51261 47.3424 4.53783 38.8001C7.56306 30.2578 11.3748 23.6104 15.9732 18.858C20.7149 14.004 26.3139 10.0583 32.4909 7.21759C38.9013 4.20973 44.8913 2.25463 50.4607 1.35227C56.3438 0.425281 62.2926 -0.0273713 68.249 -0.001267C82.7701 -0.001267 92.9953 1.23196 98.9248 3.6984C104.854 6.16484 107.819 10.8872 107.819 17.8654C107.819 23.3999 106.79 29.3855 104.733 35.8223C102.676 42.2591 99.6508 45.4775 95.6575 45.4775C94.6865 45.4775 90.5721 44.5451 83.3146 42.6802C76.0571 40.8153 70.6117 39.8829 66.9784 39.8829C56.5686 39.8829 51.3653 48.6057 51.3683 66.0513C51.3683 74.8372 52.5784 81.3643 54.9985 85.6324C57.4187 89.9006 60.444 92.2768 64.0742 92.761V76.5186C64.0742 73.5107 67.1599 70.7435 73.3314 68.2169C79.5029 65.6903 85.4323 64.427 91.1197 64.427C96.8071 64.427 100.952 64.788 103.553 65.5099C106.155 66.2317 107.94 67.2544 108.908 68.5779C110.602 70.7435 111.449 72.6685 111.449 74.3529V124.344C111.449 125.911 108.273 127.174 101.92 128.133C95.371 129.112 88.757 129.594 82.1348 129.577C75.2978 129.577 70.9717 129.246 69.1566 128.585C67.3415 127.923 66.3129 126.088 66.0709 123.08L64.8003 112.432H63.3482C62.5904 117.424 60.346 122.076 56.9044 125.787C53.4557 129.52 48.222 131.385 41.2035 131.382Z" fill="#000741"/>
<path d="M145.301 110.088C145.301 113.998 147.177 115.953 150.928 115.953C153.106 115.953 155.95 115.216 159.459 113.742C162.969 112.268 164.814 111.531 164.996 111.531C166.142 111.531 167.655 113.246 169.533 116.675C171.412 120.104 172.35 122.63 172.347 124.255C172.347 126.601 169.927 128.375 165.086 129.578C160.444 130.755 155.674 131.361 150.883 131.383C146.254 131.383 142.382 131.022 139.266 130.3C136.606 129.748 134.039 128.821 131.642 127.548C129.71 126.461 127.964 125.075 126.469 123.442C125.152 122.055 124.037 120.49 123.157 118.795C122.397 117.226 121.818 115.576 121.432 113.877C120.823 111.183 120.518 108.428 120.525 105.666C120.525 94.7144 123.399 87.1647 129.147 83.0168C131.987 80.9134 135.23 79.4088 138.676 78.5953C142.757 77.6919 146.93 77.2679 151.11 77.332C166.417 77.332 174.071 82.6258 174.071 93.2135C174.071 104.46 165.48 110.085 148.296 110.088H145.301ZM145.12 96.9131V102.869C145.952 102.885 146.776 102.705 147.525 102.345C148.275 101.984 148.927 101.452 149.431 100.793C150.569 99.3566 151.163 97.5681 151.11 95.7401C151.11 92.1306 150.172 90.3259 148.296 90.3259C146.176 90.3259 145.117 92.5217 145.12 96.9131V96.9131Z" fill="#000741"/>
<path d="M204.656 110.088C204.656 113.998 206.532 115.953 210.283 115.953C212.461 115.953 215.305 115.216 218.814 113.742C222.324 112.268 224.169 111.531 224.351 111.531C225.5 111.531 227.013 113.246 228.888 116.675C230.764 120.104 231.702 122.63 231.702 124.255C231.702 126.601 229.282 128.375 224.441 129.578C219.799 130.755 215.029 131.361 210.238 131.383C205.609 131.383 201.737 131.022 198.621 130.3C195.961 129.748 193.394 128.821 190.997 127.548C189.065 126.461 187.319 125.075 185.824 123.442C184.507 122.055 183.392 120.49 182.512 118.795C181.752 117.226 181.173 115.576 180.787 113.877C180.178 111.183 179.873 108.428 179.88 105.666C179.88 94.7144 182.754 87.1647 188.502 83.0168C191.342 80.9134 194.585 79.4088 198.031 78.5953C202.112 77.6919 206.285 77.2679 210.465 77.332C225.769 77.332 233.423 82.6258 233.426 93.2135C233.426 104.46 224.835 110.085 207.651 110.088H204.656ZM204.475 96.9131V102.869C205.307 102.885 206.131 102.705 206.88 102.345C207.63 101.984 208.282 101.452 208.786 100.793C209.924 99.3566 210.518 97.5681 210.465 95.7401C210.465 92.1306 209.527 90.3259 207.651 90.3259C205.534 90.3259 204.475 92.5217 204.475 96.9131Z" fill="#000741"/>
<path d="M140.264 63.5259C136.578 64.0056 132.865 64.2468 129.147 64.2478C125.459 64.2478 123.099 64.0373 122.068 63.6162C121.036 63.1951 120.522 62.5333 120.525 61.631V6.22625C120.525 4.72232 122.264 3.33872 125.743 2.07542C129.549 0.758698 133.558 0.117285 137.587 0.180463C138.77 0.157437 139.953 0.217742 141.127 0.360931C143.184 0.661717 144.636 1.9551 145.483 4.24107L154.196 27.5219H154.559V6.22625C154.559 4.72232 156.283 3.33872 159.732 2.07542C163.521 0.755949 167.516 0.11438 171.53 0.180463C175.342 0.180463 177.762 0.902356 178.791 2.34613C179.434 3.14545 179.814 4.12201 179.88 5.14343V61.631C179.88 62.41 178.019 63.0416 174.298 63.5259C170.234 64.0286 166.142 64.2697 162.046 64.2478C157.599 64.2478 155.164 63.6763 154.74 62.5333L146.3 40.3353H145.846V61.631C145.846 62.41 143.986 63.0416 140.264 63.5259Z" fill="#000741"/>
<path d="M214.503 63.6613C210.719 64.0501 206.918 64.2459 203.114 64.2478C199.362 64.2478 196.972 64.0824 195.944 63.7515C194.914 63.4222 194.401 62.8492 194.401 62.0822C194.401 60.8189 198.485 47.4038 206.653 21.837H188.048C187.198 21.837 186.532 20.3933 186.051 17.5057C185.779 15.6839 185.658 13.8429 185.688 12.0014C185.733 9.40221 186.06 6.81548 186.664 4.2862C187.299 1.42873 188.313 0 189.704 0H226.188C229.153 0 231.029 0.661726 231.815 1.98518C232.532 3.1994 232.879 4.59431 232.814 6.00067C232.814 7.658 232.118 11.6434 230.726 17.9569C229.335 24.2704 227.535 32.0307 225.326 41.2377C223.118 50.4418 221.53 57.3899 220.562 62.0822C220.365 62.7439 218.346 63.2703 214.503 63.6613Z" fill="#000741"/>
<path d="M271.635 130.413C266.347 131.019 261.029 131.32 255.707 131.315C250.171 131.315 246.586 131.067 244.952 130.571C243.319 130.075 242.502 129.24 242.502 128.067V9.11381C242.502 7.12862 245.073 5.18855 250.216 3.2936C255.514 1.36903 261.117 0.406277 266.757 0.451178C275.106 0.451178 279.281 2.52659 279.281 6.67744V82.5657H281.051C285.407 61.9017 288.629 51.5697 290.716 51.5697C295.98 51.5697 302.333 52.7879 309.775 55.2242C317.217 57.6606 320.938 60.3677 320.938 63.3455C320.938 65.5111 319.123 69.662 315.493 75.798C311.863 81.934 308.096 86.9421 304.194 90.8222C317.172 106.253 323.661 115.411 323.661 118.299C323.661 121.006 319.532 124.3 311.273 128.18C303.014 132.06 297.206 134 293.848 134C292.214 134 290.49 132.045 288.674 128.135C286.859 124.224 284.908 118.337 282.821 110.471L279.281 114.667V128.067C279.266 129.045 276.717 129.827 271.635 130.413Z" fill="#000741"/>
<path d="M368.018 131.794C352.953 131.794 341.926 130.35 334.937 127.462C331.398 125.928 329.628 124.44 329.628 122.996C329.628 119.296 330.717 114.965 332.895 110.002C335.074 105.039 336.979 102.557 338.613 102.557C339.521 102.557 342.584 103.55 347.802 105.535C353.021 107.52 357.422 108.513 361.007 108.513C364.592 108.513 366.952 108.287 368.086 107.836C368.622 107.642 369.078 107.279 369.385 106.802C369.693 106.325 369.834 105.761 369.788 105.197C369.788 103.888 368.88 102.851 367.065 102.084C364.887 101.231 362.593 100.706 360.259 100.527C357.294 100.212 354.358 99.669 351.478 98.9028C348.462 98.1317 345.523 97.0897 342.697 95.7897C339.974 94.5264 337.706 92.4284 335.89 89.4958C334.1 86.657 333.156 83.3717 333.168 80.021C333.168 76.6372 333.258 74.1106 333.44 72.4412C333.621 70.7719 334.37 68.4257 335.686 65.4028C336.897 62.5185 338.816 59.9822 341.268 58.0261C343.673 56.1311 347.394 54.4166 352.431 52.8826C357.934 51.2836 363.646 50.5081 369.38 50.5816C375.642 50.5816 380.883 50.7846 385.103 51.1907C388.451 51.4557 391.773 51.9761 395.041 52.7473C397.082 53.2492 399.061 53.9755 400.94 54.9129C403.572 56.2665 404.888 57.7554 404.888 59.3796C404.888 62.8988 403.618 66.9594 401.076 71.5614C398.535 76.1634 396.516 78.4644 395.018 78.4644C393.506 78.4644 390.261 77.6749 385.285 76.0958C380.308 74.5166 376.633 73.7271 374.258 73.7271C370.446 73.7271 368.54 74.8099 368.54 76.9756C368.54 78.3291 369.833 79.3442 372.42 80.021C375.007 80.6978 378.13 81.3971 381.791 82.119C385.513 82.8672 389.176 83.885 392.749 85.1645C396.515 86.5497 399.779 89.0228 402.12 92.266C404.707 95.695 406 100.026 406 105.26C406 122.949 393.339 131.794 368.018 131.794Z" fill="#000741"/>
<path d="M365.881 0.848219C377.77 -0.748953 390.14 -0.166935 401.589 3.28458C402.951 3.79441 405.033 4.11926 405.269 5.72094C405.592 8.29717 405.873 10.8779 405.991 13.4587C406.154 15.313 403.468 15.6424 402.951 17.2034C401.508 20.9482 401.989 25.0179 400.546 28.7265C399.715 31.3716 398.29 33.7935 396.376 35.8083C394.463 37.823 392.113 39.3775 389.505 40.3534C389.382 40.2812 389.183 40.1007 389.051 40.0286L389.505 40.3534C389.746 40.4617 388.783 40.5023 389.024 40.6467C382.395 42.7734 375.342 43.2475 368.486 42.0273C362.587 41.0437 357.236 37.6644 354.418 32.8684C352.054 29.1597 351.215 24.8374 349.173 20.9843C348.996 20.7003 348.763 20.4546 348.488 20.2618C348.214 20.069 347.903 19.933 347.574 19.8619C347.246 19.7908 346.907 19.786 346.576 19.8478C346.246 19.9096 345.931 20.0368 345.651 20.2218C343.569 22.7259 343.328 25.9608 342.048 28.7942C340.483 33.3737 337.483 37.7681 332.837 40.2767C327.391 43.259 320.789 43.8049 314.585 43.4756C309.38 43.1868 304.017 41.9145 299.974 38.7517C296.371 36.0447 294.129 32.1014 293.126 27.9911C292.286 24.9772 292.364 21.7423 291.043 18.8367C290.562 17.6005 289.042 17.2711 288.243 16.2921C287.789 15.6739 287.921 14.9114 287.921 14.2211C288.044 12.0374 288.202 9.85825 288.32 7.63845C288.331 7.27905 288.441 6.92952 288.639 6.62853C288.837 6.32754 289.114 6.08682 289.441 5.933C290.843 5.1705 292.445 4.73286 294.006 4.22303C302.415 1.71447 311.341 0.735422 320.19 0.915893C324.51 0.96828 328.814 1.4428 333.041 2.3326C337.243 3.17179 341.445 4.4802 345.81 4.4802C352.817 4.69677 359.142 1.67838 365.867 0.843703M369.788 10.1109C366.707 10.4403 363.462 10.7651 360.821 12.4029C359.378 13.3459 359.741 15.11 359.818 16.5086C360.3 21.4716 362.024 26.7594 366.171 30.2831C369.974 33.4413 375.46 33.7346 380.302 33.1526C383.905 32.7917 387.563 31.1178 389.31 28.14C391.434 24.5306 391.393 20.2895 391.352 16.3282C391.152 14.546 391.111 12.439 389.537 11.1667C387.817 10.0387 385.575 10.0026 383.533 9.81313C378.94 9.67524 374.344 9.77162 369.761 10.1019M311.677 10.8283C309.194 11.0494 306.435 11.0133 304.312 12.43C302.633 14.0271 302.751 16.4906 302.71 18.5705C302.91 22.4597 303.073 26.6917 305.596 29.9853C307.633 32.6382 311.2 33.9828 314.672 34.1993C317.435 34.3437 320.276 34.3798 322.958 33.6895C325.598 32.9892 327.968 31.522 329.764 29.4755C332.968 25.5863 334.13 20.7136 334.302 15.9898C334.343 14.9385 334.343 13.6662 333.34 12.9759C331.339 11.5953 328.739 11.3381 326.334 10.9772C321.524 10.4809 316.6 10.6613 311.713 10.8418L311.677 10.8283Z" fill="#000741"/>
</g>
<defs>
<clipPath id="clip0_85_5">
<rect width="406" height="134" fill="white"/>
</clipPath>
</defs>
</svg>
